<svg width="20" height="20" viewBox="0 0 20 20" fill="none" xmlns="http://www.w3.org/2000/svg">
<path d="M7.07778 2.78889C6.87708 3.50873 6.77614 4.25271 6.77778 5C6.77778 9.53333 10.4667 13.2222 15 13.2222C15.7556 13.2222 16.5 13.1222 17.2111 12.9222C16.6274 14.3563 15.6298 15.5841 14.3455 16.4489C13.0612 17.3137 11.5483 17.7763 10 17.7778C5.71111 17.7778 2.22222 14.2889 2.22222 10C2.22222 6.74444 4.23333 3.94444 7.07778 2.78889ZM10 0C8.02219 0 6.08879 0.58649 4.4443 1.6853C2.79981 2.78412 1.51808 4.3459 0.761205 6.17316C0.00432898 8.00042 -0.193704 10.0111 0.192148 11.9509C0.578 13.8907 1.53041 15.6725 2.92893 17.0711C4.32746 18.4696 6.10929 19.422 8.0491 19.8078C9.98891 20.1937 11.9996 19.9957 13.8268 19.2388C15.6541 18.4819 17.2159 17.2002 18.3147 15.5557C19.4135 13.9112 20 11.9778 20 10C20 9.48889 19.9556 8.97778 19.8889 8.48889C19.3337 9.2674 18.6001 9.90162 17.7496 10.3385C16.899 10.7754 15.9562 11.0022 15 11C13.728 11 12.4889 10.596 11.4613 9.84628C10.4338 9.09654 9.67094 8.03979 9.28282 6.82845C8.89469 5.61712 8.90136 4.31381 9.30185 3.10651C9.70234 1.8992 10.476 0.850312 11.5111 0.111111C11.0222 0.0444443 10.5111 0 10 0Z" fill="white"/>
</svg>
